{
	"asset":{
		"generator":"Khronos glTF Blender I/O v3.6.27",
		"version":"2.0"
	},
	"extensionsUsed":[
		"KHR_materials_specular",
		"KHR_materials_ior"
	],
	"scene":0,
	"scenes":[
		{
			"name":"Scene",
			"nodes":[
				0
			]
		}
	],
	"nodes":[
		{
			"mesh":0,
			"name":"Asset 4",
			"rotation":[
				0.7071068286895752,
				0,
				0,
				0.7071068286895752
			],
			"scale":[
				0.21694009006023407,
				0.21694009006023407,
				0.21694009006023407
			]
		}
	],
	"materials":[
		{
			"doubleSided":true,
			"extensions":{
				"KHR_materials_specular":{
					"specularColorFactor":[
						1.4426731644328632,
						1.4426731644328632,
						1.4426731644328632
					]
				},
				"KHR_materials_ior":{
					"ior":1.4500000476837158
				}
			},
			"name":"Material.001",
			"pbrMetallicRoughness":{
				"baseColorFactor":[
					0.09272214770317078,
					0.09272214770317078,
					0.09272214770317078,
					1
				],
				"roughnessFactor":0.20443350076675415
			}
		}
	],
	"meshes":[
		{
			"name":"Asset 4",
			"primitives":[
				{
					"attributes":{
						"POSITION":0,
						"NORMAL":1,
						"TEXCOORD_0":2
					},
					"indices":3,
					"material":0
				}
			]
		}
	],
	"accessors":[
		{
			"bufferView":0,
			"componentType":5126,
			"count":289606,
			"max":[
				31.30340003967285,
				1.4247100353240967,
				17.447500228881836
			],
			"min":[
				-31.30340003967285,
				-1.4247100353240967,
				-17.447500228881836
			],
			"type":"VEC3"
		},
		{
			"bufferView":1,
			"componentType":5126,
			"count":289606,
			"type":"VEC3"
		},
		{
			"bufferView":2,
			"componentType":5126,
			"count":289606,
			"type":"VEC2"
		},
		{
			"bufferView":3,
			"componentType":5125,
			"count":874368,
			"type":"SCALAR"
		}
	],
	"bufferViews":[
		{
			"buffer":0,
			"byteLength":3475272,
			"byteOffset":0,
			"target":34962
		},
		{
			"buffer":0,
			"byteLength":3475272,
			"byteOffset":3475272,
			"target":34962
		},
		{
			"buffer":0,
			"byteLength":2316848,
			"byteOffset":6950544,
			"target":34962
		},
		{
			"buffer":0,
			"byteLength":3497472,
			"byteOffset":9267392,
			"target":34963
		}
	],
	"buffers":[
		{
			"byteLength":12764864,
			"uri":"nami.bin"
		}
	]
}
